:SAMPLES-PER-SECOND 30
:FULLY-SPECIFIED
:DEGREES
98
root  -19.5377 37.9215 -6.51423 64.7898 -82.8939 -70.4657
RightUpLeg  -21.3951 -14.5357 11.7857
RightLeg  34.2364 -3.93495 -3.15581
RightFoot  -8.60887 0.174545 -9.81184
RightToes  -1.74624e-010 0 -3.6325e-017
Spine  11.4263 -5.29379 7.24264
Spine1  7.89549 -5.99315 7.38659
HEad  -16.6269 7.20775 -3.22592
LeftShoulder1  8.50343 -12.517 -46.2986
LeftArm  -6.90474 -3.01186 -27.9266
LeftForeArm  97.8883 -80.0776 -56.992
LeftHand  -0.244104 0.0205437 5.32207
RightShoulder  5.46439 8.92249 37.9382
RightArm  -16.1985 -22.5897 23.1789
RightForeArm  52.5226 59.6445 14.2499
RightHand  -0.161763 -8.96637 4.19788
LeftUpLeg  -4.30123 0.416541 10.3778
LeftLeg  67.919 0.74542 2.7809
LeftFoot  9.14589 1.19811 -6.94983
LeftToes  1.61887e-010 9.40759e-012 5.52375e-011
99
root  -21.1349 38.5799 -6.64502 72.5572 -84.2896 -78.2933
RightUpLeg  -16.7164 -15.1531 10.1915
RightLeg  31.0769 -2.57392 -1.9427
RightFoot  -8.88564 0.143157 -9.44911
RightToes  -1.74624e-010 0 -3.6325e-017
Spine  11.2831 -3.9377 7.90264
Spine1  7.58297 -3.91943 4.92779
HEad  -14.792 5.8207 -1.66575
LeftShoulder1  8.83724 -12.6735 -47.6788
LeftArm  -7.37243 0.529207 -28.9972
LeftForeArm  72.4147 -74.3904 -31.3919
LeftHand  -0.244104 0.0205437 5.32207
RightShoulder  5.8287 9.23703 39.6324
RightArm  -27.3652 -18.5419 30.5614
RightForeArm  39.2431 54.0602 12.2552
RightHand  -0.0386207 -8.59225 -3.45462
LeftUpLeg  -9.63899 -0.116381 8.7111
LeftLeg  68.5989 1.60629 5.29616
LeftFoot  4.85856 0.742787 -5.46706
LeftToes  1.61887e-010 9.40759e-012 5.52375e-011
100
root  -22.7082 39.2576 -6.7695 93.6752 -85.8624 -98.925
RightUpLeg  -12.4904 -15.3963 8.23049
RightLeg  27.4731 -0.827356 -0.715149
RightFoot  -9.19366 0.109895 -9.13001
RightToes  -1.74624e-010 0 -3.6325e-017
Spine  10.5309 -2.16799 8.42811
Spine1  7.31309 -1.45799 2.21061
HEad  -13.1878 4.01141 -0.661484
LeftShoulder1  9.11716 -12.8131 -48.7798
LeftArm  -7.31074 4.07511 -29.2464
LeftForeArm  62.8051 -67.2236 -19.8809
LeftHand  -0.244104 0.0205437 5.32207
RightShoulder  6.07949 9.43004 40.8192
RightArm  -28.0489 -13.7174 34.7446
RightForeArm  10.0433 47.7075 11.6012
RightHand  -0.44175 -2.70115 -18.3148
LeftUpLeg  -14.4516 0.430649 6.93813
LeftLeg  65.372 2.57853 6.82971
LeftFoot  2.54647 0.594666 -5.00522
LeftToes  1.61887e-010 9.40759e-012 5.52375e-011
101
root  -24.2708 39.8763 -6.90531 128.271 -86.7865 -132.777
RightUpLeg  -8.31538 -14.7318 5.78969
RightLeg  23.2912 0.162984 0.515029
RightFoot  -9.49289 0.0753757 -8.63293
RightToes  -1.74624e-010 0 -3.6325e-017
Spine  9.46555 -0.460716 8.14608
Spine1  7.23127 0.634327 -0.0692215
HEad  -12.3996 2.28305 -0.477499
LeftShoulder1  9.2731 -12.9201 -49.2928
LeftArm  -6.84973 7.72317 -28.9091
LeftForeArm  57.2834 -59.5444 -13.8358
LeftHand  -0.244104 0.0205437 5.32207
RightShoulder  6.26372 9.69503 41.2446
RightArm  -19.1176 -8.72292 36.1009
RightForeArm  -9.5769 43.0608 11.0578
RightHand  -1.87141 4.03891 -23.6549
LeftUpLeg  -18.499 1.2382 4.96635
LeftLeg  58.9076 3.87452 7.44321
LeftFoot  0.939053 0.456446 -4.30054
LeftToes  1.61887e-010 9.40759e-012 5.52375e-011
102
root  -25.7871 40.3458 -7.00747 159.568 -86.6041 -163.566
RightUpLeg  -4.1041 -11.598 3.28665
RightLeg  19.1058 -1.73509 1.74486
RightFoot  -9.16224 0.0906451 -8.00225
RightToes  -1.74624e-010 0 -3.6325e-017
Spine  8.79237 0.610906 8.27368
Spine1  7.27776 2.12575 -2.48631
HEad  -12.2553 0.999885 -0.767998
LeftShoulder1  9.24565 -12.8918 -49.2306
LeftArm  -5.9798 11.0462 -28.151
LeftForeArm  49.6299 -51.1661 -10.0953
LeftHand  -0.244104 0.0205437 5.32207
RightShoulder  6.4164 10.0977 40.9795
RightArm  -7.54136 -4.33697 36.5171
RightForeArm  -8.83353 42.9433 10.9734
RightHand  -0.941134 0.428593 -16.765
LeftUpLeg  -21.04 2.03673 3.37151
LeftLeg  49.3521 5.66595 7.43706
LeftFoot  -0.769133 0.418615 -4.48862
LeftToes  1.61887e-010 9.40759e-012 5.52375e-011
103
root  -27.2819 40.6081 -7.0549 171.163 -85.8866 -174.904
RightUpLeg  -0.383801 -8.9974 1.82447
RightLeg  16.0058 -3.38199 2.69977
RightFoot  -9.03063 0.0906268 -7.49037
RightToes  -1.74624e-010 0 -3.6325e-017
Spine  8.47298 1.11985 9.53964
Spine1  7.50159 3.20054 -4.9995
HEad  -12.5768 0.206036 -1.34356
LeftShoulder1  9.1625 -12.8008 -49.0598
LeftArm  -4.4346 13.5378 -27.1158
LeftForeArm  39.4018 -41.7474 -7.41279
LeftHand  -0.244104 0.0205437 5.32207
RightShoulder  6.52566 10.4907 40.465
RightArm  2.16381 0.11375 36.8786
RightForeArm  7.99634 45.5446 10.8758
RightHand  0.0184279 -5.10631 -5.38179
LeftUpLeg  -21.8565 3.57337 2.36913
LeftLeg  36.9969 6.97518 6.05274
LeftFoot  -1.75047 0.444332 -5.16129
LeftToes  1.61887e-010 9.40759e-012 5.52375e-011
